<mxfile host="app.diagrams.net" modified="2022-06-04T16:34:29.036Z" agent="5.0 (Macintosh; Intel Mac OS X 10_15_7) AppleWebKit/537.36 (KHTML, like Gecko) Chrome/101.0.4951.64 Safari/537.36" etag="tztu9HkCJNir8yArcePo" version="18.1.1" type="github">
  <diagram id="MUfO-xkh0XS9AZBFr9oF" name="Page-1">
    <mxGraphModel dx="1298" dy="813" grid="1" gridSize="10" guides="1" tooltips="1" connect="1" arrows="1" fold="1" page="1" pageScale="1" pageWidth="850" pageHeight="1100" math="0" shadow="0">
      <root>
        <mxCell id="0" />
        <mxCell id="1" parent="0" />
        <mxCell id="5BGRp9sfdosFNwBADmLR-1" value="" style="swimlane;startSize=0;fontSize=18;" vertex="1" parent="1">
          <mxGeometry x="50" y="240" width="355" height="320" as="geometry" />
        </mxCell>
        <mxCell id="5BGRp9sfdosFNwBADmLR-33" value="" style="rounded=1;whiteSpace=wrap;html=1;labelBackgroundColor=none;fontSize=18;fillColor=#FF6666;rotation=-90;" vertex="1" parent="5BGRp9sfdosFNwBADmLR-1">
          <mxGeometry x="70" y="130" width="280" height="80" as="geometry" />
        </mxCell>
        <mxCell id="5BGRp9sfdosFNwBADmLR-3" value="&lt;font style=&quot;font-size: 18px;&quot;&gt;Data center&lt;/font&gt;" style="text;html=1;align=center;verticalAlign=middle;resizable=0;points=[];autosize=1;strokeColor=none;fillColor=none;" vertex="1" parent="5BGRp9sfdosFNwBADmLR-1">
          <mxGeometry x="245" width="110" height="20" as="geometry" />
        </mxCell>
        <mxCell id="5BGRp9sfdosFNwBADmLR-4" value="nodeB" style="ellipse;whiteSpace=wrap;html=1;aspect=fixed;fontSize=18;" vertex="1" parent="5BGRp9sfdosFNwBADmLR-1">
          <mxGeometry x="100" y="40" width="60" height="60" as="geometry" />
        </mxCell>
        <mxCell id="5BGRp9sfdosFNwBADmLR-7" value="nodeA" style="ellipse;whiteSpace=wrap;html=1;aspect=fixed;fontSize=18;" vertex="1" parent="5BGRp9sfdosFNwBADmLR-1">
          <mxGeometry x="20" y="40" width="60" height="60" as="geometry" />
        </mxCell>
        <mxCell id="5BGRp9sfdosFNwBADmLR-6" value="nodeC" style="ellipse;whiteSpace=wrap;html=1;aspect=fixed;fontSize=18;labelBackgroundColor=default;" vertex="1" parent="5BGRp9sfdosFNwBADmLR-1">
          <mxGeometry x="180" y="40" width="60" height="60" as="geometry" />
        </mxCell>
        <mxCell id="5BGRp9sfdosFNwBADmLR-5" value="nodeD" style="ellipse;whiteSpace=wrap;html=1;aspect=fixed;fontSize=18;" vertex="1" parent="5BGRp9sfdosFNwBADmLR-1">
          <mxGeometry x="260" y="40" width="60" height="60" as="geometry" />
        </mxCell>
        <mxCell id="5BGRp9sfdosFNwBADmLR-8" value="nodeF" style="ellipse;whiteSpace=wrap;html=1;aspect=fixed;fontSize=18;" vertex="1" parent="5BGRp9sfdosFNwBADmLR-1">
          <mxGeometry x="100" y="120" width="60" height="60" as="geometry" />
        </mxCell>
        <mxCell id="5BGRp9sfdosFNwBADmLR-9" value="nodeE" style="ellipse;whiteSpace=wrap;html=1;aspect=fixed;fontSize=18;" vertex="1" parent="5BGRp9sfdosFNwBADmLR-1">
          <mxGeometry x="20" y="120" width="60" height="60" as="geometry" />
        </mxCell>
        <mxCell id="5BGRp9sfdosFNwBADmLR-10" value="nodeG" style="ellipse;whiteSpace=wrap;html=1;aspect=fixed;fontSize=18;labelBackgroundColor=default;" vertex="1" parent="5BGRp9sfdosFNwBADmLR-1">
          <mxGeometry x="180" y="120" width="60" height="60" as="geometry" />
        </mxCell>
        <mxCell id="5BGRp9sfdosFNwBADmLR-11" value="nodeH" style="ellipse;whiteSpace=wrap;html=1;aspect=fixed;fontSize=18;" vertex="1" parent="5BGRp9sfdosFNwBADmLR-1">
          <mxGeometry x="260" y="120" width="60" height="60" as="geometry" />
        </mxCell>
        <mxCell id="5BGRp9sfdosFNwBADmLR-12" value="nodeJ" style="ellipse;whiteSpace=wrap;html=1;aspect=fixed;fontSize=18;" vertex="1" parent="5BGRp9sfdosFNwBADmLR-1">
          <mxGeometry x="100" y="200" width="60" height="60" as="geometry" />
        </mxCell>
        <mxCell id="5BGRp9sfdosFNwBADmLR-13" value="nodeI" style="ellipse;whiteSpace=wrap;html=1;aspect=fixed;fontSize=18;" vertex="1" parent="5BGRp9sfdosFNwBADmLR-1">
          <mxGeometry x="20" y="200" width="60" height="60" as="geometry" />
        </mxCell>
        <mxCell id="5BGRp9sfdosFNwBADmLR-14" value="nodeK" style="ellipse;whiteSpace=wrap;html=1;aspect=fixed;fontSize=18;labelBackgroundColor=default;" vertex="1" parent="5BGRp9sfdosFNwBADmLR-1">
          <mxGeometry x="180" y="200" width="60" height="60" as="geometry" />
        </mxCell>
        <mxCell id="5BGRp9sfdosFNwBADmLR-15" value="nodeL" style="ellipse;whiteSpace=wrap;html=1;aspect=fixed;fontSize=18;" vertex="1" parent="5BGRp9sfdosFNwBADmLR-1">
          <mxGeometry x="260" y="200" width="60" height="60" as="geometry" />
        </mxCell>
        <mxCell id="5BGRp9sfdosFNwBADmLR-34" value="Failing" style="text;html=1;strokeColor=none;fillColor=none;align=center;verticalAlign=middle;whiteSpace=wrap;rounded=0;labelBackgroundColor=none;fontSize=18;fontStyle=1" vertex="1" parent="5BGRp9sfdosFNwBADmLR-1">
          <mxGeometry x="180" y="270" width="60" height="30" as="geometry" />
        </mxCell>
        <mxCell id="5BGRp9sfdosFNwBADmLR-18" value="Data to Node Lookup Table" style="shape=table;startSize=30;container=1;collapsible=1;childLayout=tableLayout;fixedRows=1;rowLines=0;fontStyle=1;align=center;resizeLast=1;fontSize=18;" vertex="1" parent="1">
          <mxGeometry x="410" y="280" width="270" height="190" as="geometry" />
        </mxCell>
        <mxCell id="5BGRp9sfdosFNwBADmLR-19" value="" style="shape=tableRow;horizontal=0;startSize=0;swimlaneHead=0;swimlaneBody=0;fillColor=none;collapsible=0;dropTarget=0;points=[[0,0.5],[1,0.5]];portConstraint=eastwest;top=0;left=0;right=0;bottom=1;fontSize=18;" vertex="1" parent="5BGRp9sfdosFNwBADmLR-18">
          <mxGeometry y="30" width="270" height="30" as="geometry" />
        </mxCell>
        <mxCell id="5BGRp9sfdosFNwBADmLR-20" value="Key" style="shape=partialRectangle;connectable=0;fillColor=none;top=0;left=0;bottom=0;right=0;fontStyle=1;overflow=hidden;fontSize=18;" vertex="1" parent="5BGRp9sfdosFNwBADmLR-19">
          <mxGeometry width="70" height="30" as="geometry">
            <mxRectangle width="70" height="30" as="alternateBounds" />
          </mxGeometry>
        </mxCell>
        <mxCell id="5BGRp9sfdosFNwBADmLR-21" value="Nodes" style="shape=partialRectangle;connectable=0;fillColor=none;top=0;left=0;bottom=0;right=0;align=left;spacingLeft=6;fontStyle=5;overflow=hidden;fontSize=18;" vertex="1" parent="5BGRp9sfdosFNwBADmLR-19">
          <mxGeometry x="70" width="200" height="30" as="geometry">
            <mxRectangle width="200" height="30" as="alternateBounds" />
          </mxGeometry>
        </mxCell>
        <mxCell id="5BGRp9sfdosFNwBADmLR-22" value="" style="shape=tableRow;horizontal=0;startSize=0;swimlaneHead=0;swimlaneBody=0;fillColor=none;collapsible=0;dropTarget=0;points=[[0,0.5],[1,0.5]];portConstraint=eastwest;top=0;left=0;right=0;bottom=0;fontSize=18;" vertex="1" parent="5BGRp9sfdosFNwBADmLR-18">
          <mxGeometry y="60" width="270" height="30" as="geometry" />
        </mxCell>
        <mxCell id="5BGRp9sfdosFNwBADmLR-23" value="k1" style="shape=partialRectangle;connectable=0;fillColor=none;top=0;left=0;bottom=0;right=0;editable=1;overflow=hidden;fontSize=18;" vertex="1" parent="5BGRp9sfdosFNwBADmLR-22">
          <mxGeometry width="70" height="30" as="geometry">
            <mxRectangle width="70" height="30" as="alternateBounds" />
          </mxGeometry>
        </mxCell>
        <mxCell id="5BGRp9sfdosFNwBADmLR-24" value="A, B, &lt;font style=&quot;&quot; color=&quot;#ff3333&quot;&gt;C&lt;/font&gt;,&lt;font color=&quot;#0000ff&quot;&gt; H&lt;/font&gt;" style="shape=partialRectangle;connectable=0;fillColor=none;top=0;left=0;bottom=0;right=0;align=left;spacingLeft=6;overflow=hidden;fontSize=18;html=1;" vertex="1" parent="5BGRp9sfdosFNwBADmLR-22">
          <mxGeometry x="70" width="200" height="30" as="geometry">
            <mxRectangle width="200" height="30" as="alternateBounds" />
          </mxGeometry>
        </mxCell>
        <mxCell id="5BGRp9sfdosFNwBADmLR-25" value="" style="shape=tableRow;horizontal=0;startSize=0;swimlaneHead=0;swimlaneBody=0;fillColor=none;collapsible=0;dropTarget=0;points=[[0,0.5],[1,0.5]];portConstraint=eastwest;top=0;left=0;right=0;bottom=0;fontSize=18;" vertex="1" parent="5BGRp9sfdosFNwBADmLR-18">
          <mxGeometry y="90" width="270" height="30" as="geometry" />
        </mxCell>
        <mxCell id="5BGRp9sfdosFNwBADmLR-26" value="k2" style="shape=partialRectangle;connectable=0;fillColor=none;top=0;left=0;bottom=0;right=0;editable=1;overflow=hidden;fontSize=18;" vertex="1" parent="5BGRp9sfdosFNwBADmLR-25">
          <mxGeometry width="70" height="30" as="geometry">
            <mxRectangle width="70" height="30" as="alternateBounds" />
          </mxGeometry>
        </mxCell>
        <mxCell id="5BGRp9sfdosFNwBADmLR-27" value="E, H, L" style="shape=partialRectangle;connectable=0;fillColor=none;top=0;left=0;bottom=0;right=0;align=left;spacingLeft=6;overflow=hidden;fontSize=18;" vertex="1" parent="5BGRp9sfdosFNwBADmLR-25">
          <mxGeometry x="70" width="200" height="30" as="geometry">
            <mxRectangle width="200" height="30" as="alternateBounds" />
          </mxGeometry>
        </mxCell>
        <mxCell id="5BGRp9sfdosFNwBADmLR-28" value="" style="shape=tableRow;horizontal=0;startSize=0;swimlaneHead=0;swimlaneBody=0;fillColor=none;collapsible=0;dropTarget=0;points=[[0,0.5],[1,0.5]];portConstraint=eastwest;top=0;left=0;right=0;bottom=0;fontSize=18;" vertex="1" parent="5BGRp9sfdosFNwBADmLR-18">
          <mxGeometry y="120" width="270" height="30" as="geometry" />
        </mxCell>
        <mxCell id="5BGRp9sfdosFNwBADmLR-29" value="k3" style="shape=partialRectangle;connectable=0;fillColor=none;top=0;left=0;bottom=0;right=0;editable=1;overflow=hidden;fontSize=18;" vertex="1" parent="5BGRp9sfdosFNwBADmLR-28">
          <mxGeometry width="70" height="30" as="geometry">
            <mxRectangle width="70" height="30" as="alternateBounds" />
          </mxGeometry>
        </mxCell>
        <mxCell id="5BGRp9sfdosFNwBADmLR-30" value="F, &lt;font style=&quot;&quot; color=&quot;#ff3333&quot;&gt;G&lt;/font&gt;,&amp;nbsp;&lt;font style=&quot;&quot; color=&quot;#ff3333&quot;&gt;K&lt;/font&gt;, D, I" style="shape=partialRectangle;connectable=0;fillColor=none;top=0;left=0;bottom=0;right=0;align=left;spacingLeft=6;overflow=hidden;fontSize=18;fontColor=#000000;html=1;" vertex="1" parent="5BGRp9sfdosFNwBADmLR-28">
          <mxGeometry x="70" width="200" height="30" as="geometry">
            <mxRectangle width="200" height="30" as="alternateBounds" />
          </mxGeometry>
        </mxCell>
        <mxCell id="5BGRp9sfdosFNwBADmLR-37" value="" style="shape=tableRow;horizontal=0;startSize=0;swimlaneHead=0;swimlaneBody=0;fillColor=none;collapsible=0;dropTarget=0;points=[[0,0.5],[1,0.5]];portConstraint=eastwest;top=0;left=0;right=0;bottom=0;fontSize=18;" vertex="1" parent="5BGRp9sfdosFNwBADmLR-18">
          <mxGeometry y="150" width="270" height="30" as="geometry" />
        </mxCell>
        <mxCell id="5BGRp9sfdosFNwBADmLR-38" value="..." style="shape=partialRectangle;connectable=0;fillColor=none;top=0;left=0;bottom=0;right=0;editable=1;overflow=hidden;fontSize=18;" vertex="1" parent="5BGRp9sfdosFNwBADmLR-37">
          <mxGeometry width="70" height="30" as="geometry">
            <mxRectangle width="70" height="30" as="alternateBounds" />
          </mxGeometry>
        </mxCell>
        <mxCell id="5BGRp9sfdosFNwBADmLR-39" value="..." style="shape=partialRectangle;connectable=0;fillColor=none;top=0;left=0;bottom=0;right=0;align=left;spacingLeft=6;overflow=hidden;fontSize=18;fontColor=#000000;html=1;" vertex="1" parent="5BGRp9sfdosFNwBADmLR-37">
          <mxGeometry x="70" width="200" height="30" as="geometry">
            <mxRectangle width="200" height="30" as="alternateBounds" />
          </mxGeometry>
        </mxCell>
      </root>
    </mxGraphModel>
  </diagram>
</mxfile>
